<?xml version="1.0" encoding="UTF-8" standalone="no"?>
<svg width="112px" height="41px" viewBox="0 0 112 41" version="1.1" xmlns="http://www.w3.org/2000/svg" xmlns:xlink="http://www.w3.org/1999/xlink" xmlns:sketch="http://www.bohemiancoding.com/sketch/ns">
    <!-- Generator: Sketch 3.1 (8751) - http://www.bohemiancoding.com/sketch -->
    <title>skrill-logo</title>
    <description>Created with Sketch.</description>
    <defs>
        <path id="path-1" d="M0,-0.23223835 L111.887506,-0.23223835 L111.887506,39.1851286 L0,39.1851286 L0,-0.23223835 L0,-0.23223835 Z"></path>
    </defs>
    <g id="Page-1" stroke="none" stroke-width="1" fill="none" fill-rule="evenodd" sketch:type="MSPage">
        <g id="skrill-logo" sketch:type="MSLayerGroup" transform="translate(0.000000, 1.000000)">
                        <mask id="mask-2" sketch:name="path-1" fill="white">
                            <use xlink:href="#path-1"></use>
                        </mask>
                        <g id="path-1"></g>
                        <path d="M80.3691276,9.24522533 C82.9056565,9.24522533 84.9616212,7.12401324 84.9616212,4.50827604 C84.9616212,1.89101095 82.9056565,-0.23223835 80.3691276,-0.23223835 C77.8355594,-0.23223835 75.7805815,1.89101095 75.7805815,4.50827604 C75.7805815,7.12401324 77.8355594,9.24522533 80.3691276,9.24522533 L80.3691276,9.24522533 L80.3691276,9.24522533 Z M45.1966872,11.8034122 C44.9894625,12.3407181 43.4979384,16.6895849 39.8907489,21.1968424 L39.8907489,1.92462439 L30.2794713,3.88540871 L30.2794713,38.8184365 L39.8907489,38.8184365 L39.8907489,28.0203718 C42.6744669,32.3300229 44.0490573,38.8184365 44.0490573,38.8184365 L55.5613745,38.8184365 C54.4226255,33.9317545 49.4413392,24.921314 49.4413392,24.921314 C53.9119648,19.0705373 55.8756652,12.8362618 56.1879823,11.8034122 L45.1966872,11.8034122 L45.1966872,11.8034122 Z M70.4642819,11.4387573 C61.8555771,11.7239623 57.4856035,15.7107206 57.4856035,23.6358544 L57.4856035,38.8184365 L66.8773216,38.8184365 L66.8773216,26.4374841 C66.8773216,21.6918768 67.47926,19.657754 72.9346961,19.4637128 L72.9346961,11.5777947 C72.0164934,11.3766234 70.4642819,11.4387573 70.4642819,11.4387573 L70.4642819,11.4387573 L70.4642819,11.4387573 Z M14.1603524,15.6501146 C12.9831189,15.5701554 10.2576211,15.3883372 10.2576211,12.855615 C10.2576211,9.79933788 14.1815683,9.79933788 15.6533568,9.79933788 C18.2411982,9.79933788 21.5928106,10.5887446 23.9862555,11.3277311 C23.9862555,11.3277311 25.3213745,11.8135982 26.4576564,12.311179 L26.5632423,12.3407181 L26.5632423,3.97046091 L26.418185,3.92615228 C23.5935154,2.90603515 20.3090044,1.92462439 14.2195595,1.92462439 C3.72017621,1.92462439 0,8.23834988 0,13.6470588 C0,16.7649605 1.29466079,24.1028775 13.3191189,24.9493252 C14.3384669,25.0140056 17.0437357,25.1749427 17.0437357,27.7922078 C17.0437357,29.9531449 14.8288987,31.2274001 11.1037885,31.2274001 C7.02146255,31.2274001 3.0614978,30.1527884 0.656211453,29.1336898 L0.656211453,37.75452 C4.25698678,38.7288006 8.31612335,39.2156863 13.0734097,39.2156863 C23.3394185,39.2156863 27.9373392,33.2421696 27.9373392,27.3216195 C27.9373392,20.6086071 22.7922467,16.2470079 14.1603524,15.6501146 L14.1603524,15.6501146 L14.1603524,15.6501146 Z M75.7134802,38.8184365 L85.0292159,38.8184365 L85.0292159,11.83397 L75.7134802,11.83397 L75.7134802,38.8184365 L75.7134802,38.8184365 Z M102.570291,3.64502165 L102.570291,38.8184365 L111.887506,38.8184365 L111.887506,1.92462439 L102.570291,3.64502165 L102.570291,3.64502165 Z M88.975366,3.64502165 L98.2837006,1.92462439 L98.2837006,38.8184365 L88.975366,38.8184365 L88.975366,3.64502165 L88.975366,3.64502165 Z" id="Fill-1" fill="#862165" sketch:type="MSShapeGroup" mask="url(#mask-2)"></path>
                    </g>
    </g>
</svg>